<?xml version="1.0" encoding="us-ascii" standalone="no"?><svg xmlns="http://www.w3.org/2000/svg" xmlns:xlink="http://www.w3.org/1999/xlink" contentStyleType="text/css" height="903px" preserveAspectRatio="none" style="width:499px;height:903px;background:#FFFFFF;" version="1.1" viewBox="0 0 499 903" width="499px" zoomAndPan="magnify"><defs/><g><text fill="#000000" font-family="sans-serif" font-size="14" font-weight="bold" lengthAdjust="spacing" textLength="390" x="53" y="32.9951">Gigwa: Compare one to all genotypes in minicore</text><rect fill="#F1F1F1" height="47.9375" rx="12.5" ry="12.5" style="stroke:#181818;stroke-width:0.5;" width="122" x="188.5" y="48.2969"/><text fill="#000000" font-family="sans-serif" font-size="12" lengthAdjust="spacing" textLength="95" x="198.5" y="69.4355">PB home page:</text><text fill="#000000" font-family="sans-serif" font-size="12" lengthAdjust="spacing" textLength="102" x="198.5" y="83.4043">Tools panel(left)</text><rect fill="#F1F1F1" height="61.9063" rx="12.5" ry="12.5" style="stroke:#181818;stroke-width:0.5;" width="359" x="70" y="137.6333"/><text fill="#000000" font-family="sans-serif" font-size="12" lengthAdjust="spacing" textLength="116" x="80" y="158.772">Gigwa home page:</text><text fill="#000000" font-family="sans-serif" font-size="12" lengthAdjust="spacing" textLength="339" x="80" y="172.7407">a. Top left, Database dropdown=US_Peanut_minicore,</text><text fill="#000000" font-family="sans-serif" font-size="12" lengthAdjust="spacing" textLength="180" x="80" y="186.7095">b. Enable Browse and export</text><rect fill="#F1F1F1" height="33.9688" rx="12.5" ry="12.5" style="stroke:#181818;stroke-width:0.5;" width="169" x="165" y="240.9385"/><text fill="#000000" font-family="sans-serif" font-size="12" lengthAdjust="spacing" textLength="149" x="175" y="262.0771">Genotype data appears</text><rect fill="#F1F1F1" height="61.9063" rx="12.5" ry="12.5" style="stroke:#181818;stroke-width:0.5;" width="190" x="154.5" y="316.3062"/><text fill="#000000" font-family="sans-serif" font-size="12" lengthAdjust="spacing" textLength="44" x="164.5" y="337.4448">Popup:</text><text fill="#000000" font-family="sans-serif" font-size="12" lengthAdjust="spacing" textLength="170" x="164.5" y="351.4136">a. Export format= Flapjack,</text><text fill="#000000" font-family="sans-serif" font-size="12" lengthAdjust="spacing" textLength="139" x="164.5" y="365.3823">b. Keep files on server</text><rect fill="#F1F1F1" height="33.9688" rx="12.5" ry="12.5" style="stroke:#181818;stroke-width:0.5;" width="60" x="219.5" y="419.6113"/><text fill="#000000" font-family="sans-serif" font-size="12" lengthAdjust="spacing" textLength="40" x="229.5" y="440.75">Popup</text><rect fill="#F1F1F1" height="33.9688" rx="12.5" ry="12.5" style="stroke:#181818;stroke-width:0.5;" width="221" x="139" y="494.979"/><text fill="#000000" font-family="sans-serif" font-size="12" lengthAdjust="spacing" textLength="201" x="149" y="516.1177">Viewer window as a large popup</text><rect fill="none" height="327.9844" style="stroke:#000000;stroke-width:1.5;" width="477" x="11" y="565.0029"/><path d="M246,565.0029 L246,574.2998 L236,584.2998 L11,584.2998 " fill="none" style="stroke:#000000;stroke-width:1.5;"/><text fill="#000000" font-family="sans-serif" font-size="14" lengthAdjust="spacing" textLength="225" x="14" y="578.998">Viewer window opens in new tab</text><rect fill="#F1F1F1" height="47.9375" rx="12.5" ry="12.5" style="stroke:#181818;stroke-width:0.5;" width="364" x="67.5" y="601.2998"/><text fill="#000000" font-family="sans-serif" font-size="12" lengthAdjust="spacing" textLength="120" x="77.5" y="622.4385">Controls Tab (Top):</text><text fill="#000000" font-family="sans-serif" font-size="12" lengthAdjust="spacing" textLength="344" x="77.5" y="636.4072">a. Choose a Chromosome, ex. = A02 (from A01 to B10)</text><rect fill="#F1F1F1" height="47.9375" rx="12.5" ry="12.5" style="stroke:#181818;stroke-width:0.5;" width="334" x="82.5" y="669.2373"/><text fill="#000000" font-family="sans-serif" font-size="12" lengthAdjust="spacing" textLength="253" x="92.5" y="690.376">Clk Color schemes Tab= Similarity to line</text><text fill="#000000" font-family="sans-serif" font-size="12" lengthAdjust="spacing" textLength="314" x="92.5" y="704.3447">b. Dropdown: Select line (ex., C10 from dropdown)</text><rect fill="#F1F1F1" height="47.9375" rx="12.5" ry="12.5" style="stroke:#181818;stroke-width:0.5;" width="312" x="93.5" y="737.1748"/><text fill="#000000" font-family="sans-serif" font-size="12" lengthAdjust="spacing" textLength="98" x="103.5" y="758.3135">Clk Sorting Tab:</text><text fill="#000000" font-family="sans-serif" font-size="12" lengthAdjust="spacing" textLength="292" x="103.5" y="772.2822">c. By similarity to line (ex., C10 from dropdown)</text><rect fill="#F1F1F1" height="75.875" rx="12.5" ry="12.5" style="stroke:#181818;stroke-width:0.5;" width="457" x="21" y="805.1123"/><text fill="#000000" font-family="sans-serif" font-size="12" lengthAdjust="spacing" textLength="45" x="31" y="826.251">Viewer:</text><text fill="#000000" font-family="sans-serif" font-size="12" lengthAdjust="spacing" textLength="437" x="31" y="840.2197">a. Top panel: Genotype at SNP of the small window in the panel below</text><text fill="#000000" font-family="sans-serif" font-size="12" lengthAdjust="spacing" textLength="398" x="31" y="854.1885">b. Bottom panel: Flapjack view(visually comapre overall pattern)</text><text fill="#000000" font-family="sans-serif" font-size="12" lengthAdjust="spacing" textLength="368" x="31" y="868.1572">c. Move window in flapjack view to nucleotide details above</text><line style="stroke:#181818;stroke-width:1.0;" x1="249.5" x2="249.5" y1="96.2344" y2="137.6333"/><polygon fill="#181818" points="245.5,127.6333,249.5,137.6333,253.5,127.6333,249.5,131.6333" style="stroke:#181818;stroke-width:1.0;"/><text fill="#000000" font-family="sans-serif" font-size="11" lengthAdjust="spacing" textLength="54" x="253.5" y="117.5391">clk Gigwa</text><line style="stroke:#181818;stroke-width:1.0;" x1="249.5" x2="249.5" y1="199.5396" y2="240.9385"/><polygon fill="#181818" points="245.5,230.9385,249.5,240.9385,253.5,230.9385,249.5,234.9385" style="stroke:#181818;stroke-width:1.0;"/><text fill="#000000" font-family="sans-serif" font-size="11" lengthAdjust="spacing" textLength="40" x="253.5" y="220.8442">Search</text><line style="stroke:#181818;stroke-width:1.0;" x1="249.5" x2="249.5" y1="274.9072" y2="316.3062"/><polygon fill="#181818" points="245.5,306.3062,249.5,316.3062,253.5,306.3062,249.5,310.3062" style="stroke:#181818;stroke-width:1.0;"/><text fill="#000000" font-family="sans-serif" font-size="11" lengthAdjust="spacing" textLength="82" x="253.5" y="296.2119">Download icon</text><line style="stroke:#181818;stroke-width:1.0;" x1="249.5" x2="249.5" y1="378.2124" y2="419.6113"/><polygon fill="#181818" points="245.5,409.6113,249.5,419.6113,253.5,409.6113,249.5,413.6113" style="stroke:#181818;stroke-width:1.0;"/><text fill="#000000" font-family="sans-serif" font-size="11" lengthAdjust="spacing" textLength="36" x="253.5" y="399.5171">Export</text><line style="stroke:#181818;stroke-width:1.0;" x1="249.5" x2="249.5" y1="453.5801" y2="494.979"/><polygon fill="#181818" points="245.5,484.979,249.5,494.979,253.5,484.979,249.5,488.979" style="stroke:#181818;stroke-width:1.0;"/><text fill="#000000" font-family="sans-serif" font-size="11" lengthAdjust="spacing" textLength="115" x="253.5" y="474.8848">View in flapjack-byte</text><line style="stroke:#181818;stroke-width:1.0;" x1="249.5" x2="249.5" y1="649.2373" y2="669.2373"/><polygon fill="#181818" points="245.5,659.2373,249.5,669.2373,253.5,659.2373,249.5,663.2373" style="stroke:#181818;stroke-width:1.0;"/><line style="stroke:#181818;stroke-width:1.0;" x1="249.5" x2="249.5" y1="717.1748" y2="737.1748"/><polygon fill="#181818" points="245.5,727.1748,249.5,737.1748,253.5,727.1748,249.5,731.1748" style="stroke:#181818;stroke-width:1.0;"/><line style="stroke:#181818;stroke-width:1.0;" x1="249.5" x2="249.5" y1="785.1123" y2="805.1123"/><polygon fill="#181818" points="245.5,795.1123,249.5,805.1123,253.5,795.1123,249.5,799.1123" style="stroke:#181818;stroke-width:1.0;"/><line style="stroke:#181818;stroke-width:1.0;" x1="249.5" x2="249.5" y1="528.9478" y2="601.2998"/><polygon fill="#181818" points="245.5,591.2998,249.5,601.2998,253.5,591.2998,249.5,595.2998" style="stroke:#181818;stroke-width:1.0;"/><text fill="#000000" font-family="sans-serif" font-size="11" lengthAdjust="spacing" textLength="55" x="253.5" y="550.2524">(Optional)</text><text fill="#000000" font-family="sans-serif" font-size="11" lengthAdjust="spacing" textLength="225" x="257.5" y="563.0571">Open in separate window(top of popup)</text><!--SRC=[XLF1RXen4BtlLpnnMYI2I8-Bg5GWxQ5gWqJQKwHeTfa5DrwFvJMX_7t7peAeUkZD6i-yvtdlEPfe6QClPd-Y2YlfF0M6E4OKaBNOivDuzjp3E7J6cKO2ZugYsYnna8xXQSzLyIHYUpqxjgNbDexdnTr7DFOL6Ngk0_bmEqDJF8b7QfzWJP5gwXcx87ud9xVuiNtPCBbZVBdGJefwYWT7jJvv6UIatUHsuDzUGio4MwRG73BRy6xi51ZalTxqkMUju5Pe1yLqgNKZ_kZpSnuo4be97SK5FblolwXvpRnVcJrQOrK9SUWvl778U0y3_G2KQpyDdv9WxO1mLvyZfvPqmG4dutH7K0-2fR1NIQwpvQEFHXpPyRF3esUNW7fMOoZoC5b65KxQzodLkjW7ENgC_eON7Sw-ENsDoZiggfMu699LJrIZLFd7UV7LGIIfgOSWdVHgqaHrdMA1JxCFA5kjwka-fM9vFnlFeRkirDsLM0decmDtd44Ns9hEw4ucdbEtDOwJVEl1raezijp4V85IEIPOtS-G6IxUA_w5OAlQ6hTFq9KMcocMP_J_KFm7wLsNQ-HoJYjSCq8Hs- -R96WyCFek1N_GKDLBjJo1cgsSqZPBYL5P1fnBJl2cDEMRwOyAS4OZ7VdqcpGf2T5JZ1pSE2tnJOit5EqjGjh97HlB4irE0yoHZ3f6jSxC2zR4PxV_0000]--></g></svg>