<?xml version="1.0" encoding="us-ascii" standalone="no"?><svg xmlns="http://www.w3.org/2000/svg" xmlns:xlink="http://www.w3.org/1999/xlink" contentStyleType="text/css" height="634px" preserveAspectRatio="none" style="width:528px;height:634px;background:#FFFFFF;" version="1.1" viewBox="0 0 528 634" width="528px" zoomAndPan="magnify"><defs/><g><text fill="#000000" font-family="sans-serif" font-size="14" font-weight="bold" lengthAdjust="spacing" textLength="460" x="32.5" y="32.9951">Comparison between duranensis and cardenasii genomes</text><path d="M158,52.7148 L158,77.8477 A0,0 0 0 0 158,77.8477 L311,77.8477 A0,0 0 0 0 311,77.8477 L311,70.7148 L331,65.2813 L311,62.7148 L311,62.7148 L301,52.7148 L158,52.7148 A0,0 0 0 0 158,52.7148 " fill="#FEFFDD" style="stroke:#181818;stroke-width:0.5;"/><path d="M301,52.7148 L301,62.7148 L311,62.7148 L301,52.7148 " fill="#FEFFDD" style="stroke:#181818;stroke-width:0.5;"/><text fill="#000000" font-family="sans-serif" font-size="13" lengthAdjust="spacing" textLength="132" x="164" y="69.7817">Launch Dotplot view;</text><rect fill="#F1F1F1" height="33.9688" rx="12.5" ry="12.5" style="stroke:#181818;stroke-width:0.5;" width="98" x="331" y="48.2969"/><text fill="#000000" font-family="sans-serif" font-size="12" lengthAdjust="spacing" textLength="78" x="341" y="69.4355">New session</text><path d="M69.5,106.6836 L69.5,131.8164 A0,0 0 0 0 69.5,131.8164 L293.5,131.8164 A0,0 0 0 0 293.5,131.8164 L293.5,124.6836 L313.5,119.25 L293.5,116.6836 L293.5,116.6836 L283.5,106.6836 L69.5,106.6836 A0,0 0 0 0 69.5,106.6836 " fill="#FEFFDD" style="stroke:#181818;stroke-width:0.5;"/><path d="M283.5,106.6836 L283.5,116.6836 L293.5,116.6836 L283.5,106.6836 " fill="#FEFFDD" style="stroke:#181818;stroke-width:0.5;"/><text fill="#000000" font-family="sans-serif" font-size="13" lengthAdjust="spacing" textLength="203" x="75.5" y="123.7505">(Aradu.gnm2 and Araca.gnm1);</text><rect fill="#F1F1F1" height="33.9688" rx="12.5" ry="12.5" style="stroke:#181818;stroke-width:0.5;" width="133" x="313.5" y="102.2656"/><text fill="#000000" font-family="sans-serif" font-size="12" lengthAdjust="spacing" textLength="113" x="323.5" y="123.4043">Select Assemblies</text><rect fill="#F1F1F1" height="47.9375" rx="12.5" ry="12.5" style="stroke:#181818;stroke-width:0.5;" width="213" x="273.5" y="156.2344"/><text fill="#000000" font-family="sans-serif" font-size="12" lengthAdjust="spacing" textLength="193" x="283.5" y="177.373">Zoom until needed Chrs visible</text><text fill="#000000" font-family="sans-serif" font-size="12" lengthAdjust="spacing" textLength="109" x="287.5" y="191.3418">ex: Chr 5 for both</text><rect fill="#F1F1F1" height="61.9063" rx="12.5" ry="12.5" style="stroke:#181818;stroke-width:0.5;" width="259" x="250.5" y="224.1719"/><text fill="#000000" font-family="sans-serif" font-size="12" lengthAdjust="spacing" textLength="239" x="260.5" y="245.3105">Select the entire rectangle(click-drag)</text><text fill="#000000" font-family="sans-serif" font-size="12" lengthAdjust="spacing" textLength="215" x="264.5" y="259.2793">representing the two Chrs/regions</text><text fill="#000000" font-family="sans-serif" font-size="12" lengthAdjust="spacing" textLength="94" x="264.5" y="273.248">for comparison</text><rect fill="#F1F1F1" height="33.9688" rx="12.5" ry="12.5" style="stroke:#181818;stroke-width:0.5;" width="137" x="311.5" y="306.0781"/><text fill="#000000" font-family="sans-serif" font-size="12" lengthAdjust="spacing" textLength="117" x="321.5" y="327.2168">Track Selection(&#9776;)</text><path d="M18.5,364.4648 L18.5,389.5977 A0,0 0 0 0 18.5,389.5977 L259.5,389.5977 A0,0 0 0 0 259.5,389.5977 L259.5,382.4648 L279.5,377.0313 L259.5,374.4648 L259.5,374.4648 L249.5,364.4648 L18.5,364.4648 A0,0 0 0 0 18.5,364.4648 " fill="#FEFFDD" style="stroke:#181818;stroke-width:0.5;"/><path d="M249.5,364.4648 L249.5,374.4648 L259.5,374.4648 L249.5,364.4648 " fill="#FEFFDD" style="stroke:#181818;stroke-width:0.5;"/><text fill="#000000" font-family="sans-serif" font-size="13" lengthAdjust="spacing" textLength="220" x="24.5" y="381.5317">Select aradu.gnm2-x-araca.gnm1;</text><rect fill="#F1F1F1" height="33.9688" rx="12.5" ry="12.5" style="stroke:#181818;stroke-width:0.5;" width="201" x="279.5" y="360.0469"/><text fill="#000000" font-family="sans-serif" font-size="12" lengthAdjust="spacing" textLength="181" x="289.5" y="381.1855">Available Tracks(Right panel)</text><rect fill="#90EE90" height="33.9688" rx="12.5" ry="12.5" style="stroke:#181818;stroke-width:0.5;" width="255" x="252.5" y="414.0156"/><text fill="#000000" font-family="sans-serif" font-size="12" lengthAdjust="spacing" textLength="231" x="266.5" y="435.1543">Dotplot of the selected region or Chr</text><path d="M10,472.4023 L10,497.5352 A0,0 0 0 0 10,497.5352 L223,497.5352 A0,0 0 0 0 223,497.5352 L223,490.4023 L243,484.9688 L223,482.4023 L223,482.4023 L213,472.4023 L10,472.4023 A0,0 0 0 0 10,472.4023 " fill="#FEFFDD" style="stroke:#181818;stroke-width:0.5;"/><path d="M213,472.4023 L213,482.4023 L223,482.4023 L213,472.4023 " fill="#FEFFDD" style="stroke:#181818;stroke-width:0.5;"/><text fill="#000000" font-family="sans-serif" font-size="13" lengthAdjust="spacing" textLength="192" x="16" y="489.4692">OPTIONAL (Add Synteny View)</text><rect fill="#F1F1F1" height="33.9688" rx="12.5" ry="12.5" style="stroke:#181818;stroke-width:0.5;" width="274" x="243" y="467.9844"/><text fill="#000000" font-family="sans-serif" font-size="12" lengthAdjust="spacing" textLength="250" x="257" y="489.123">Select a region from dotplot (click-drag)</text><path d="M69.5,526.3711 L69.5,551.5039 A0,0 0 0 0 69.5,551.5039 L294.5,551.5039 A0,0 0 0 0 294.5,551.5039 L294.5,544.3711 L314.5,538.9375 L294.5,536.3711 L294.5,536.3711 L284.5,526.3711 L69.5,526.3711 A0,0 0 0 0 69.5,526.3711 " fill="#FEFFDD" style="stroke:#181818;stroke-width:0.5;"/><path d="M284.5,526.3711 L284.5,536.3711 L294.5,536.3711 L284.5,526.3711 " fill="#FEFFDD" style="stroke:#181818;stroke-width:0.5;"/><text fill="#000000" font-family="sans-serif" font-size="13" lengthAdjust="spacing" textLength="204" x="75.5" y="543.438">Select open linear synteny view;</text><rect fill="#F1F1F1" height="33.9688" rx="12.5" ry="12.5" style="stroke:#181818;stroke-width:0.5;" width="131" x="314.5" y="521.9531"/><text fill="#000000" font-family="sans-serif" font-size="12" lengthAdjust="spacing" textLength="107" x="328.5" y="543.0918">Options in Popup</text><rect fill="#90EE90" height="47.9375" rx="12.5" ry="12.5" style="stroke:#181818;stroke-width:0.5;" width="129" x="315.5" y="575.9219"/><text fill="#000000" font-family="sans-serif" font-size="12" lengthAdjust="spacing" textLength="105" x="329.5" y="597.0605">Synteny is drawn</text><text fill="#000000" font-family="sans-serif" font-size="12" lengthAdjust="spacing" textLength="103" x="329.5" y="611.0293">in bottom viewer</text><line style="stroke:#181818;stroke-width:1.0;" x1="380" x2="380" y1="82.2656" y2="102.2656"/><polygon fill="#181818" points="376,92.2656,380,102.2656,384,92.2656,380,96.2656" style="stroke:#181818;stroke-width:1.0;"/><line style="stroke:#181818;stroke-width:1.0;" x1="380" x2="380" y1="136.2344" y2="156.2344"/><polygon fill="#181818" points="376,146.2344,380,156.2344,384,146.2344,380,150.2344" style="stroke:#181818;stroke-width:1.0;"/><line style="stroke:#181818;stroke-width:1.0;" x1="380" x2="380" y1="204.1719" y2="224.1719"/><polygon fill="#181818" points="376,214.1719,380,224.1719,384,214.1719,380,218.1719" style="stroke:#181818;stroke-width:1.0;"/><line style="stroke:#181818;stroke-width:1.0;" x1="380" x2="380" y1="286.0781" y2="306.0781"/><polygon fill="#181818" points="376,296.0781,380,306.0781,384,296.0781,380,300.0781" style="stroke:#181818;stroke-width:1.0;"/><line style="stroke:#181818;stroke-width:1.0;" x1="380" x2="380" y1="340.0469" y2="360.0469"/><polygon fill="#181818" points="376,350.0469,380,360.0469,384,350.0469,380,354.0469" style="stroke:#181818;stroke-width:1.0;"/><line style="stroke:#181818;stroke-width:1.0;" x1="380" x2="380" y1="394.0156" y2="414.0156"/><polygon fill="#181818" points="376,404.0156,380,414.0156,384,404.0156,380,408.0156" style="stroke:#181818;stroke-width:1.0;"/><line style="stroke:#181818;stroke-width:1.0;" x1="380" x2="380" y1="447.9844" y2="467.9844"/><polygon fill="#181818" points="376,457.9844,380,467.9844,384,457.9844,380,461.9844" style="stroke:#181818;stroke-width:1.0;"/><line style="stroke:#181818;stroke-width:1.0;" x1="380" x2="380" y1="501.9531" y2="521.9531"/><polygon fill="#181818" points="376,511.9531,380,521.9531,384,511.9531,380,515.9531" style="stroke:#181818;stroke-width:1.0;"/><line style="stroke:#181818;stroke-width:1.0;" x1="380" x2="380" y1="555.9219" y2="575.9219"/><polygon fill="#181818" points="376,565.9219,380,575.9219,384,565.9219,380,569.9219" style="stroke:#181818;stroke-width:1.0;"/><!--SRC=[PLBBRW8n3Bpp5LQHAZZGgfLQrEM4wAKI0bHG3rKlOMDs8xBEAiwoyFTrmhFgqObdF3DsCC4Yt4rSLIjls16iCRI81BhnYf3OC2ZIa2klaHGR0mMIgv3lEXs0R8OjC38RHoEfPovW1bFLK5x2kmkrTG5s1jlucItHOXvWp8pLsXhaAwGtzaet3mLLpscUbBcAvLC_GR-Tgw2XO2mGeaODazApKBDPM_mXm7qMd-05Dix3seNoTcGe4L3G7i5BhQYmsCkjoRS3xLNHbrRvg3roxA8Y0KBhqfH7ZuNuuzWKoVDBMcd4IgHkuJX8sdhttRVXy7Lqr3tUAMELI8JKnhrFKvG1QidMzg_sJpBL9OJ1Vg0k4OnYrDrfH1PUbfDTedMRf9GJN48vAWKHAS8JxCfz_jnuYLAV26v3kCgPBrOVyzbuAclH6fO72aW7-98zzXFbl8vE6Gp1mjLD_S-8g-M4h25K7lW4Fv_17oDdRZapqT2IR598PNr1H4O4-j4l]--></g></svg>